<?xml version="1.0" encoding="utf-8"?>
<!-- Generator: Adobe Illustrator 26.5.0, SVG Export Plug-In . SVG Version: 6.00 Build 0)  -->
<svg version="1.1" id="Layer_1" xmlns="http://www.w3.org/2000/svg" xmlns:xlink="http://www.w3.org/1999/xlink" x="0px" y="0px"
	 viewBox="0 0 1650 846" style="enable-background:new 0 0 1650 846;" xml:space="preserve">
<style type="text/css">
	.st0{fill:none;stroke:#EBF6EA;stroke-width:5.28;}
	.st1{fill:#FFFFFF;stroke:#EBF6EA;stroke-miterlimit:10;}
	.st2{fill:#F24E1E;stroke:#EBF6EA;stroke-miterlimit:10;}
	.st3{fill:#FF7262;stroke:#EBF6EA;stroke-miterlimit:10;}
	.st4{fill:#A259FF;stroke:#EBF6EA;stroke-miterlimit:10;}
	.st5{fill:#1ABCFE;stroke:#EBF6EA;stroke-miterlimit:10;}
	.st6{fill:#0ACF83;stroke:#EBF6EA;stroke-miterlimit:10;}
	.st7{fill:#330000;stroke:#EBF6EA;stroke-miterlimit:10;}
	.st8{fill:#FF9A00;stroke:#EBF6EA;stroke-miterlimit:10;}
	.st9{fill:#E44F26;stroke:#EBF6EA;stroke-miterlimit:10;}
	.st10{fill:#F1662A;stroke:#EBF6EA;stroke-miterlimit:10;}
	.st11{fill:#EBEBEB;stroke:#EBF6EA;stroke-miterlimit:10;}
	.st12{fill:#264DE4;stroke:#EBF6EA;stroke-miterlimit:10;}
	.st13{fill:#2965F1;stroke:#EBF6EA;stroke-miterlimit:10;}
	.st14{fill:#001E36;stroke:#EBF6EA;stroke-miterlimit:10;}
	.st15{fill:#31A8FF;stroke:#EBF6EA;stroke-miterlimit:10;}
	.st16{fill-rule:evenodd;clip-rule:evenodd;fill:#FFFFFF;filter:url(#Adobe_OpacityMaskFilter);}
	.st17{mask:url(#mask0_804_635_00000163056021417166831000000016585579608497442471_);}
	.st18{fill:#0065A9;stroke:#EBF6EA;stroke-miterlimit:10;}
	.st19{fill:#007ACC;stroke:#EBF6EA;stroke-miterlimit:10;}
	.st20{fill:#1F9CF0;stroke:#EBF6EA;stroke-miterlimit:10;}
	
		.st21{opacity:0.25;fill-rule:evenodd;clip-rule:evenodd;fill:url(#SVGID_1_);stroke:#EBF6EA;stroke-miterlimit:10;enable-background:new    ;}
	.st22{fill:#00D8FF;stroke:#EBF6EA;stroke-miterlimit:10;}
	.st23{fill:none;stroke:#EBF6EA;stroke-width:2.7786;}
	.st24{clip-path:url(#SVGID_00000047019346211589344880000015541267034254060457_);}
	.st25{fill:#FF2D20;stroke:#EBF6EA;stroke-miterlimit:10;}
	.st26{fill:none;stroke:#EBF6EA;stroke-width:4;}
	.st27{fill:#DD4C35;stroke:#EBF6EA;stroke-miterlimit:10;}
</style>
<path class="st0" d="M826.6,289.4v-58.9c0-4.4,3.5-7.9,7.9-7.9h58.9c4.4,0,7.9,3.5,7.9,7.9v58.9c0,4.4-3.5,7.9-7.9,7.9h-58.9
	C830.2,297.4,826.6,293.8,826.6,289.4z"/>
<path class="st0" d="M994.6,222.6h58.9c4.4,0,7.9,3.5,7.9,7.9v58.9c0,4.4-3.5,7.9-7.9,7.9h-58.9c-4.4,0-7.9-3.5-7.9-7.9v-58.9
	C986.6,226.2,990.2,222.6,994.6,222.6z"/>
<path class="st0" d="M76.6,181.4v-58.9c0-4.4,3.5-7.9,7.9-7.9h58.9c4.4,0,7.9,3.5,7.9,7.9v58.9c0,4.4-3.5,7.9-7.9,7.9H84.6
	C80.2,189.4,76.6,185.8,76.6,181.4z"/>
<path class="st0" d="M981.4,310.6v58.9c0,4.4-3.5,7.9-7.9,7.9h-58.9c-4.4,0-7.9-3.5-7.9-7.9v-58.9c0-4.4,3.5-7.9,7.9-7.9h58.9
	C977.8,302.6,981.4,306.2,981.4,310.6z"/>
<path class="st0" d="M1119.6,289.4v-58.9c0-4.4,3.5-7.9,7.9-7.9h58.9c4.4,0,7.9,3.5,7.9,7.9v58.9c0,4.4-3.5,7.9-7.9,7.9h-58.9
	C1123.2,297.4,1119.6,293.8,1119.6,289.4z"/>
<path class="st0" d="M1287.6,222.6h58.9c4.4,0,7.9,3.5,7.9,7.9v58.9c0,4.4-3.5,7.9-7.9,7.9h-58.9c-4.4,0-7.9-3.5-7.9-7.9v-58.9
	C1279.6,226.2,1283.2,222.6,1287.6,222.6z"/>
<path class="st0" d="M1061.4,390.6v58.9c0,4.4-3.5,7.9-7.9,7.9h-58.9c-4.4,0-7.9-3.5-7.9-7.9v-58.9c0-4.4,3.5-7.9,7.9-7.9h58.9
	C1057.8,382.6,1061.4,386.2,1061.4,390.6z"/>
<path class="st0" d="M893.4,457.4h-58.9c-4.4,0-7.9-3.5-7.9-7.9v-58.9c0-4.4,3.5-7.9,7.9-7.9h58.9c4.4,0,7.9,3.5,7.9,7.9v58.9
	C901.4,453.8,897.8,457.4,893.4,457.4z"/>
<path class="st0" d="M1274.4,310.6v58.9c0,4.4-3.5,7.9-7.9,7.9h-58.9c-4.4,0-7.9-3.5-7.9-7.9v-58.9c0-4.4,3.5-7.9,7.9-7.9h58.9
	C1270.8,302.6,1274.4,306.2,1274.4,310.6z"/>
<path class="st0" d="M1412.6,289.4v-58.9c0-4.4,3.5-7.9,7.9-7.9h58.9c4.4,0,7.9,3.5,7.9,7.9v58.9c0,4.4-3.5,7.9-7.9,7.9h-58.9
	C1416.2,297.4,1412.6,293.8,1412.6,289.4z"/>
<path class="st0" d="M1580.6,222.6h58.9c4.4,0,7.9,3.5,7.9,7.9v58.9c0,4.4-3.5,7.9-7.9,7.9h-58.9c-4.4,0-7.9-3.5-7.9-7.9v-58.9
	C1572.6,226.2,1576.2,222.6,1580.6,222.6z"/>
<path class="st0" d="M1567.4,310.6v58.9c0,4.4-3.5,7.9-7.9,7.9h-58.9c-4.4,0-7.9-3.5-7.9-7.9v-58.9c0-4.4,3.5-7.9,7.9-7.9h58.9
	C1563.8,302.6,1567.4,306.2,1567.4,310.6z"/>
<path class="st0" d="M323.6,90.4V31.6c0-4.4,3.5-7.9,7.9-7.9h58.9c4.4,0,7.9,3.5,7.9,7.9v58.9c0,4.4-3.5,7.9-7.9,7.9h-58.9
	C327.2,98.4,323.6,94.8,323.6,90.4z"/>
<path class="st0" d="M558.6,57.6h58.9c4.4,0,7.9,3.5,7.9,7.9v58.9c0,4.4-3.5,7.9-7.9,7.9h-58.9c-4.4,0-7.9-3.5-7.9-7.9V65.6
	C550.6,61.2,554.2,57.6,558.6,57.6z"/>
<path class="st0" d="M1354.4,390.6v58.9c0,4.4-3.5,7.9-7.9,7.9h-58.9c-4.4,0-7.9-3.5-7.9-7.9v-58.9c0-4.4,3.5-7.9,7.9-7.9h58.9
	C1350.8,382.6,1354.4,386.2,1354.4,390.6z"/>
<path class="st0" d="M1186.4,457.4h-58.9c-4.4,0-7.9-3.5-7.9-7.9v-58.9c0-4.4,3.5-7.9,7.9-7.9h58.9c4.4,0,7.9,3.5,7.9,7.9v58.9
	C1194.4,453.8,1190.8,457.4,1186.4,457.4z"/>
<path class="st0" d="M851.6,23.6h58.9c4.4,0,7.9,3.5,7.9,7.9v58.9c0,4.4-3.5,7.9-7.9,7.9h-58.9c-4.4,0-7.9-3.5-7.9-7.9V31.6
	C843.6,27.2,847.2,23.6,851.6,23.6z"/>
<path class="st0" d="M1479.4,457.4h-58.9c-4.4,0-7.9-3.5-7.9-7.9v-58.9c0-4.4,3.5-7.9,7.9-7.9h58.9c4.4,0,7.9,3.5,7.9,7.9v58.9
	C1487.4,453.8,1483.8,457.4,1479.4,457.4z"/>
<path class="st1" d="M1221.4,316h30.6c4.7,0,8.4,3.8,8.4,8.4V355c0,4.7-3.8,8.4-8.4,8.4h-30.6c-4.7,0-8.4-3.8-8.4-8.4v-30.6
	C1213,319.8,1216.8,316,1221.4,316z"/>
<path class="st2" d="M1224.5,327.3c0-3.4,2.8-6.1,6.2-6.1h6.2v12.3h-6.2C1227.3,333.5,1224.5,330.7,1224.5,327.3z"/>
<path class="st3" d="M1236.9,321.2h6.2c3.4,0,6.2,2.8,6.2,6.1c0,3.4-2.8,6.1-6.2,6.1h-6.2V321.2z"/>
<path class="st4" d="M1224.5,339.6c0-3.4,2.8-6.1,6.2-6.1h6.2v12.3h-6.2C1227.3,345.8,1224.5,343,1224.5,339.6z"/>
<path class="st5" d="M1249.3,339.6c0,3.4-2.8,6.1-6.2,6.1c-3.4,0-6.2-2.8-6.2-6.1c0-3.4,2.8-6.1,6.2-6.1
	C1246.5,333.5,1249.3,336.2,1249.3,339.6z"/>
<path class="st6" d="M1230.7,358.1c3.4,0,6.2-2.8,6.2-6.1v-6.1h-6.2c-3.4,0-6.2,2.8-6.2,6.1S1227.3,358.1,1230.7,358.1z"/>
<path class="st1" d="M1141.4,397h30.6c4.7,0,8.4,3.8,8.4,8.4V436c0,4.7-3.8,8.4-8.4,8.4h-30.6c-4.7,0-8.4-3.8-8.4-8.4v-30.6
	C1133,400.8,1136.8,397,1141.4,397z"/>
<path class="st7" d="M1168.9,403h-25.3c-3.5,0-6.3,2.8-6.3,6.3v24.3c0,3.5,2.8,6.3,6.3,6.3h25.3c3.5,0,6.3-2.8,6.3-6.3v-24.3
	C1175.2,405.8,1172.3,403,1168.9,403z"/>
<path class="st8" d="M1155.6,425.1h-5.9l-1.2,3.7c0,0.1-0.1,0.1-0.1,0.2c-0.1,0-0.1,0.1-0.2,0.1h-3c-0.2,0-0.2-0.1-0.2-0.3l5.1-14.6
	c0-0.2,0.1-0.3,0.2-0.5c0.1-0.3,0.1-0.7,0.1-1c0,0,0,0,0-0.1s0,0,0-0.1c0,0,0,0,0.1,0s0,0,0.1,0h4.1c0.1,0,0.2,0,0.2,0.1l5.8,16.2
	c0.1,0.2,0,0.3-0.2,0.3h-3.3c-0.1,0-0.1,0-0.2,0c-0.1,0-0.1-0.1-0.1-0.1L1155.6,425.1z M1150.6,421.9h4l-0.1-0.2l-0.1-0.3l-0.1-0.2
	l-0.1-0.3l-0.2-0.7l-0.2-0.6l-0.5-1.6c-0.1-0.4-0.2-0.8-0.4-1.2l-0.1-0.3l-0.1-0.4l-0.2-0.6l0-0.1h0c-0.1,0.6-0.3,1.2-0.5,1.8
	l-0.4,1.2l-0.2,0.7l-0.2,0.7c0,0.1-0.1,0.2-0.1,0.4l-0.1,0.4l-0.1,0.3l-0.1,0.3l-0.1,0.3c0,0.1-0.1,0.2-0.1,0.3L1150.6,421.9z
	 M1164.1,415.1c-0.3,0-0.5,0-0.8-0.1s-0.5-0.2-0.6-0.4c-0.2-0.2-0.3-0.4-0.4-0.7c-0.1-0.2-0.1-0.5-0.1-0.8c0-0.3,0-0.5,0.1-0.8
	c0.1-0.2,0.2-0.5,0.4-0.6c0.4-0.3,0.9-0.5,1.4-0.5l0,0c0.6,0,1.1,0.2,1.4,0.5c0.2,0.2,0.3,0.4,0.4,0.7c0.1,0.2,0.1,0.5,0.1,0.8
	c0,0.3,0,0.5-0.1,0.8c-0.1,0.2-0.2,0.5-0.4,0.7c-0.2,0.2-0.4,0.3-0.7,0.4C1164.6,415.1,1164.4,415.1,1164.1,415.1L1164.1,415.1z
	 M1162.3,428.8v-12.1c0-0.2,0.1-0.2,0.2-0.2h3.1c0.1,0,0.2,0.1,0.2,0.2v12.1c0,0.2-0.1,0.3-0.2,0.3h-3.1
	C1162.4,429,1162.3,428.9,1162.3,428.8L1162.3,428.8z"/>
<path class="st1" d="M1008.4,397h30.6c4.7,0,8.4,3.8,8.4,8.4V436c0,4.7-3.8,8.4-8.4,8.4h-30.6c-4.7,0-8.4-3.8-8.4-8.4v-30.6
	C1000,400.8,1003.8,397,1008.4,397z"/>
<path class="st9" d="M1010.3,435.5l-3-33.2h32.5l-3,33.2l-13.3,3.7L1010.3,435.5z"/>
<path class="st10" d="M1023.6,436.3l10.8-3l2.5-28.4h-13.3V436.3z"/>
<path class="st11" d="M1023.6,417.3h-5.4l-0.4-4.2h5.8v-4.1h-10.2l0.1,1.1l1,11.2h9.1V417.3z M1023.6,427.9L1023.6,427.9l-4.5-1.2
	l-0.3-3.2h-4.1l0.6,6.4l8.3,2.3l0,0V427.9z"/>
<path class="st1" d="M1023.6,417.3v4.1h5l-0.5,5.3l-4.5,1.2v4.2l8.3-2.3l0.1-0.7l1-10.7l0.1-1.1H1023.6z M1023.6,409.1v4.1h9.8
	l0.1-0.9l0.2-2.1l0.1-1.1H1023.6z"/>
<path class="st1" d="M1433.4,236h30.6c4.7,0,8.4,3.8,8.4,8.4V275c0,4.7-3.8,8.4-8.4,8.4h-30.6c-4.7,0-8.4-3.8-8.4-8.4v-30.6
	C1425,239.8,1428.8,236,1433.4,236z"/>
<path class="st12" d="M1448.6,278.1l-13.3-3.7l-3-33.2h32.5l-3,33.2L1448.6,278.1z"/>
<path class="st13" d="M1459.4,272.3l2.5-28.4h-13.3v31.3L1459.4,272.3z"/>
<path class="st11" d="M1439.2,256.3l0.4,4.1h9.1v-4.1H1439.2z M1438.4,248.1l0.4,4.1h9.8v-4.1H1438.4z M1448.6,266.9L1448.6,266.9
	l-4.6-1.2l-0.3-3.2h-4.1l0.6,6.4l8.3,2.3l0,0V266.9z"/>
<path class="st1" d="M1458.1,256.3l0.7-8.2h-10.2v4.1h5.7l-0.4,4.2h-5.4v4.1h5l-0.5,5.3l-4.5,1.2v4.2l8.3-2.3l0.1-0.7l1-10.7
	L1458.1,256.3z"/>
<path class="st1" d="M1302.4,397h30.6c4.7,0,8.4,3.8,8.4,8.4V436c0,4.7-3.8,8.4-8.4,8.4h-30.6c-4.7,0-8.4-3.8-8.4-8.4v-30.6
	C1294,400.8,1297.8,397,1302.4,397z"/>
<path class="st14" d="M1329.9,403h-25.4c-3.5,0-6.3,2.8-6.3,6.3v24.3c0,3.5,2.8,6.3,6.3,6.3h25.4c3.5,0,6.3-2.8,6.3-6.3v-24.3
	C1336.2,405.8,1333.4,403,1329.9,403z"/>
<path class="st15" d="M1306.8,428.8v-16.2c0-0.1,0-0.2,0.2-0.2l0.2,0l0.3,0l0.4,0l1.3,0l1.4,0c0.5,0,1,0,1.4,0
	c1.3,0,2.4,0.2,3.3,0.5c0.8,0.3,1.5,0.7,2.1,1.3c0.5,0.5,0.9,1.1,1.2,1.8c0.2,0.7,0.4,1.3,0.4,2c0,1.4-0.3,2.5-0.9,3.3
	c-0.6,0.9-1.5,1.5-2.5,1.9l-0.1,0c-1,0.4-2.2,0.5-3.4,0.5h-0.2l-0.3,0l-0.1,0l-0.2,0l-0.1,0l-0.1,0l-0.2,0l-0.2,0l-0.3,0h-0.1v5.1
	c0,0,0,0.1,0,0.1c0,0,0,0.1,0,0.1c0,0-0.1,0-0.1,0c0,0-0.1,0-0.1,0h-3C1306.8,429,1306.8,429,1306.8,428.8z M1310.2,415.5v5.3
	c0.2,0,0.4,0,0.6,0h0.8c0.6,0,1.2-0.1,1.7-0.3l0.1,0c0.5-0.1,1-0.4,1.3-0.8c0.3-0.4,0.5-0.9,0.5-1.5v-0.1c0-0.5-0.1-1-0.4-1.4
	c-0.3-0.4-0.7-0.7-1.1-0.9c-0.6-0.2-1.2-0.3-1.9-0.3l-0.3,0l-0.2,0l-0.2,0l-0.3,0l-0.2,0l-0.1,0l-0.1,0l-0.1,0l-0.1,0L1310.2,415.5
	L1310.2,415.5L1310.2,415.5z M1328.6,419.8c-0.4-0.2-0.9-0.4-1.4-0.5l-0.1,0c-0.5-0.1-1.1-0.2-1.6-0.2l-0.1,0c-0.3,0-0.6,0-1,0.1
	c-0.2,0-0.4,0.2-0.5,0.3c-0.1,0.1-0.1,0.3-0.1,0.4c0,0.1,0.1,0.3,0.2,0.4c0.1,0.2,0.3,0.3,0.5,0.4l0.1,0c0.4,0.2,0.7,0.4,1.1,0.5
	c0.9,0.3,1.7,0.7,2.4,1.2c0.5,0.3,0.9,0.8,1.2,1.3c0.3,0.5,0.4,1.1,0.4,1.6c0,0.7-0.2,1.5-0.6,2.1c-0.4,0.6-1.1,1.1-1.8,1.4
	c-0.8,0.3-1.7,0.5-2.8,0.5l-0.1,0c-0.7,0-1.3-0.1-2-0.2l-0.1,0c-0.6-0.1-1.1-0.3-1.6-0.5c0,0-0.1-0.1-0.1-0.1c0,0,0-0.1-0.1-0.2
	v-2.8c0,0,0-0.1,0-0.1c0,0,0,0,0-0.1c0,0,0.1,0,0.1,0c0,0,0,0,0.1,0c0.6,0.4,1.3,0.6,2,0.8c0.6,0.2,1.2,0.2,1.9,0.2
	c0.6,0,1-0.1,1.3-0.2c0.1-0.1,0.2-0.2,0.3-0.3c0.1-0.1,0.1-0.3,0.1-0.4c0-0.2-0.1-0.4-0.4-0.6c-0.1-0.1-0.3-0.2-0.5-0.3l-0.1,0
	l-0.1,0l0,0l-0.1,0c0,0,0,0-0.1,0l-0.1-0.1l-0.1,0l-0.1-0.1l-0.1,0l-0.2-0.1l-0.1-0.1c-0.8-0.3-1.6-0.7-2.3-1.1
	c-0.5-0.3-0.9-0.8-1.2-1.3c-0.2-0.5-0.4-1-0.4-1.6c0-0.7,0.2-1.3,0.5-1.9c0.4-0.6,1-1.1,1.7-1.4c0.7-0.4,1.7-0.6,2.8-0.6
	c0.7,0,1.3,0,2,0.1c0.5,0.1,0.9,0.2,1.4,0.4c0.1,0,0.1,0.1,0.2,0.1c0,0.1,0,0.1,0,0.2v2.6c0,0.1,0,0.1-0.1,0.2c0,0-0.1,0-0.1,0
	C1328.7,419.8,1328.6,419.8,1328.6,419.8z"/>
<path class="st1" d="M1008.4,237h30.6c4.7,0,8.4,3.8,8.4,8.4V276c0,4.7-3.8,8.4-8.4,8.4h-30.6c-4.7,0-8.4-3.8-8.4-8.4v-30.6
	C1000,240.8,1003.8,237,1008.4,237z"/>
<defs>
	<filter id="Adobe_OpacityMaskFilter" filterUnits="userSpaceOnUse" x="1003.7" y="241.8" width="38.1" height="37.9">
		<feColorMatrix  type="matrix" values="1 0 0 0 0  0 1 0 0 0  0 0 1 0 0  0 0 0 1 0"/>
	</filter>
</defs>
<mask maskUnits="userSpaceOnUse" x="1003.7" y="241.8" width="38.1" height="37.9" id="mask0_804_635_00000163056021417166831000000016585579608497442471_">
	<path class="st16" d="M1030.5,279c0.3,0.1,0.6,0.2,0.9,0.2c0.3,0,0.6-0.1,0.9-0.2l7.6-3.7c0.4-0.2,0.7-0.5,1-0.9
		c0.2-0.4,0.4-0.8,0.4-1.2v-24.9c0-0.4-0.1-0.9-0.4-1.2c-0.2-0.4-0.6-0.7-1-0.9l-7.6-3.7c-0.4-0.2-0.9-0.3-1.4-0.2
		c-0.5,0.1-0.9,0.3-1.2,0.6l-14.6,13.3l-6.4-4.8c-0.3-0.2-0.6-0.3-1-0.3c-0.4,0-0.7,0.2-1,0.4l-2,1.9c-0.2,0.1-0.3,0.3-0.4,0.5
		c-0.1,0.2-0.1,0.4-0.1,0.6c0,0.2,0,0.4,0.1,0.6c0.1,0.2,0.2,0.4,0.4,0.5l5.5,5l-5.5,5c-0.2,0.1-0.3,0.3-0.4,0.5
		c-0.1,0.2-0.1,0.4-0.1,0.6c0,0.2,0,0.4,0.1,0.6c0.1,0.2,0.2,0.4,0.4,0.5l2,1.9c0.3,0.2,0.6,0.4,1,0.4c0.4,0,0.7-0.1,1-0.3l6.4-4.8
		l14.6,13.3C1029.9,278.7,1030.2,278.9,1030.5,279z M1032,252.3l-11.1,8.4l11.1,8.4V252.3z"/>
</mask>
<g class="st17">
	<path class="st18" d="M1040,246.2l-7.6-3.7c-0.4-0.2-0.9-0.3-1.4-0.2c-0.5,0.1-0.9,0.3-1.2,0.6l-25,22.8c-0.2,0.1-0.3,0.3-0.4,0.5
		c-0.1,0.2-0.1,0.4-0.1,0.6c0,0.2,0,0.4,0.1,0.6c0.1,0.2,0.2,0.4,0.4,0.5l2,1.9c0.3,0.2,0.6,0.4,1,0.4c0.4,0,0.7-0.1,1-0.3
		l30.1-22.8c1-0.8,2.5,0,2.5,1.2v-0.1c0-0.4-0.1-0.9-0.4-1.2C1040.7,246.7,1040.4,246.4,1040,246.2z"/>
	<g>
		<path class="st19" d="M1040,275.2l-7.6,3.7c-0.4,0.2-0.9,0.3-1.4,0.2c-0.5-0.1-0.9-0.3-1.2-0.6l-25-22.8c-0.2-0.1-0.3-0.3-0.4-0.5
			c-0.1-0.2-0.1-0.4-0.1-0.6c0-0.2,0-0.4,0.1-0.6c0.1-0.2,0.2-0.4,0.4-0.5l2-1.9c0.3-0.2,0.6-0.4,1-0.4c0.4,0,0.7,0.1,1,0.3
			l30.1,22.8c1,0.8,2.5,0,2.5-1.2v0.1c0,0.4-0.1,0.9-0.4,1.2C1040.7,274.8,1040.4,275,1040,275.2z"/>
	</g>
	<g>
		<path class="st20" d="M1032.3,278.9c-0.4,0.2-0.9,0.3-1.4,0.2c-0.5-0.1-0.9-0.3-1.2-0.6c0.9,0.9,2.3,0.2,2.3-1v-33.6
			c0-1.2-1.5-1.8-2.3-1c0.3-0.3,0.8-0.6,1.2-0.6c0.5-0.1,1,0,1.4,0.2l7.6,3.7c0.4,0.2,0.7,0.5,1,0.9c0.2,0.4,0.4,0.8,0.4,1.2v24.9
			c0,0.4-0.1,0.9-0.4,1.2c-0.2,0.4-0.6,0.7-1,0.9L1032.3,278.9z"/>
	</g>
	
		<linearGradient id="SVGID_1_" gradientUnits="userSpaceOnUse" x1="1022.72" y1="603.7326" x2="1022.72" y2="566.8583" gradientTransform="matrix(1 0 0 -1 0 846)">
		<stop  offset="0" style="stop-color:#FFFFFF"/>
		<stop  offset="1" style="stop-color:#FFFFFF;stop-opacity:0"/>
	</linearGradient>
	<path class="st21" d="M1030.5,279c0.3,0.1,0.6,0.2,0.9,0.2c0.3,0,0.6-0.1,0.9-0.2l7.6-3.7c0.4-0.2,0.7-0.5,1-0.9
		c0.2-0.4,0.3-0.8,0.3-1.2v-24.9c0-0.4-0.1-0.9-0.3-1.2c-0.2-0.4-0.6-0.7-1-0.9l-7.6-3.7c-0.4-0.2-0.9-0.3-1.4-0.2
		c-0.5,0.1-0.9,0.3-1.2,0.6l-14.6,13.3l-6.4-4.8c-0.3-0.2-0.6-0.3-1-0.3c-0.4,0-0.7,0.2-1,0.4l-2,1.9c-0.2,0.1-0.3,0.3-0.4,0.5
		c-0.1,0.2-0.1,0.4-0.1,0.6s0,0.4,0.1,0.6c0.1,0.2,0.2,0.4,0.4,0.5l5.5,5l-5.5,5c-0.2,0.1-0.3,0.3-0.4,0.5c-0.1,0.2-0.1,0.4-0.1,0.6
		c0,0.2,0,0.4,0.1,0.6c0.1,0.2,0.2,0.4,0.4,0.5l2,1.9c0.3,0.2,0.6,0.4,1,0.4c0.4,0,0.7-0.1,1-0.3l6.4-4.8l14.6,13.3
		C1029.9,278.7,1030.2,278.9,1030.5,279z M1032,252.3l-11.1,8.4l11.1,8.4V252.3z"/>
</g>
<path class="st1" d="M1434.4,398h30.6c4.7,0,8.4,3.8,8.4,8.4V437c0,4.7-3.8,8.4-8.4,8.4h-30.6c-4.7,0-8.4-3.8-8.4-8.4v-30.6
	C1426,401.8,1429.8,398,1434.4,398z"/>
<path class="st22" d="M1449.8,425.3c2.1,0,3.9-1.7,3.9-3.9c0-2.1-1.7-3.9-3.9-3.9s-3.9,1.7-3.9,3.9
	C1445.9,423.6,1447.7,425.3,1449.8,425.3z"/>
<path class="st23" d="M1449.8,413.6c5.2,0,10,0.7,13.6,2c4.4,1.5,7,3.8,7,5.8c0,2.2-2.8,4.6-7.5,6.1c-3.6,1.2-8.2,1.8-13.1,1.8
	c-5,0-9.8-0.6-13.4-1.8c-4.5-1.5-7.3-4-7.3-6.1c0-2,2.6-4.3,6.9-5.8C1439.6,414.4,1444.6,413.6,1449.8,413.6L1449.8,413.6z"/>
<path class="st23" d="M1443,417.6c2.6-4.5,5.6-8.3,8.5-10.8c3.5-3,6.8-4.2,8.6-3.2c1.9,1.1,2.5,4.7,1.5,9.6c-0.8,3.7-2.6,8-5,12.3
	c-2.5,4.4-5.4,8.2-8.2,10.7c-3.6,3.2-7.1,4.3-8.9,3.2c-1.8-1-2.4-4.4-1.6-8.9C1438.6,426.7,1440.4,422.1,1443,417.6L1443,417.6z"/>
<path class="st23" d="M1443,425.4c-2.6-4.5-4.4-9-5.1-12.8c-0.9-4.5-0.3-8,1.5-9c1.9-1.1,5.4,0.2,9.1,3.5c2.8,2.5,5.7,6.2,8.1,10.5
	c2.5,4.4,4.4,8.8,5.2,12.5c0.9,4.7,0.2,8.3-1.7,9.4c-1.8,1-5-0.1-8.5-3C1448.7,433.9,1445.6,430,1443,425.4z"/>
<path class="st1" d="M1143.4,236h30.6c4.7,0,8.4,3.8,8.4,8.4V275c0,4.7-3.8,8.4-8.4,8.4h-30.6c-4.7,0-8.4-3.8-8.4-8.4v-30.6
	C1135,239.8,1138.8,236,1143.4,236z"/>
<g>
	<defs>
		<rect id="SVGID_00000122680870212007549560000017140182994942205617_" x="1141" y="242" width="35.2" height="36"/>
	</defs>
	<clipPath id="SVGID_00000106125989203396597540000010304150324806617000_">
		<use xlink:href="#SVGID_00000122680870212007549560000017140182994942205617_"  style="overflow:visible;"/>
	</clipPath>
	<g style="clip-path:url(#SVGID_00000106125989203396597540000010304150324806617000_);">
		<path class="st25" d="M1176.2,250.1c0,0,0,0.1,0,0.1v7.7c0,0.2-0.1,0.4-0.3,0.5l-6.5,3.7v7.4c0,0.1,0,0.2-0.1,0.3
			c0,0.1-0.1,0.2-0.2,0.2l-13.6,7.8c0,0-0.1,0-0.1,0c0,0,0,0,0,0c-0.1,0-0.2,0-0.3,0c0,0,0,0,0,0c0,0-0.1,0-0.1,0l-13.6-7.8
			c-0.1,0-0.2-0.1-0.2-0.2c0-0.1-0.1-0.2-0.1-0.3v-23.1c0-0.1,0-0.1,0-0.1c0,0,0,0,0,0c0,0,0-0.1,0-0.1c0,0,0,0,0-0.1
			c0,0,0,0,0.1-0.1c0,0,0,0,0,0c0,0,0,0,0.1,0l0,0l6.8-3.9c0.1,0,0.2-0.1,0.3-0.1s0.2,0,0.3,0.1l6.8,3.9l0,0c0,0,0,0,0.1,0
			c0,0,0,0,0.1,0c0,0,0,0,0.1,0.1c0,0,0,0,0,0.1c0,0,0,0.1,0,0.1c0,0,0,0,0,0c0,0,0,0.1,0,0.1v14.5l5.7-3.2v-7.4c0,0,0-0.1,0-0.1
			c0,0,0,0,0,0c0,0,0-0.1,0-0.1c0,0,0,0,0,0c0,0,0,0,0.1-0.1c0,0,0,0,0.1,0c0,0,0,0,0.1,0l0,0l6.8-3.9c0.1,0,0.2-0.1,0.3-0.1
			s0.2,0,0.3,0.1l6.8,3.9c0,0,0,0,0.1,0c0,0,0,0,0.1,0c0,0,0,0,0.1,0.1c0,0,0,0,0,0C1176.2,250,1176.2,250.1,1176.2,250.1
			C1176.2,250.1,1176.2,250.1,1176.2,250.1z M1175.1,257.7v-6.4l-2.4,1.4l-3.3,1.9v6.4L1175.1,257.7L1175.1,257.7z M1168.3,269.3
			v-6.4l-3.2,1.8l-9.3,5.2v6.5L1168.3,269.3L1168.3,269.3z M1142.1,247.4v21.8l12.5,7.1v-6.5l-6.5-3.7v0l0,0c0,0,0,0-0.1,0
			c0,0,0,0-0.1,0v0c0,0,0,0-0.1-0.1c0,0,0,0,0-0.1v0c0,0,0,0,0-0.1c0,0,0,0,0-0.1l0,0c0,0,0-0.1,0-0.1c0,0,0,0,0-0.1v-15.1l-3.3-1.9
			L1142.1,247.4L1142.1,247.4z M1148.4,243.2l-5.7,3.2l5.7,3.2l5.7-3.2L1148.4,243.2L1148.4,243.2z M1151.3,263.4l3.3-1.9v-14.1
			l-2.4,1.4l-3.3,1.9v14.1L1151.3,263.4z M1168.8,247l-5.7,3.2l5.7,3.2l5.7-3.2L1168.8,247z M1168.3,254.5l-3.3-1.9l-2.4-1.4v6.4
			l3.3,1.9l2.4,1.4V254.5L1168.3,254.5z M1155.2,268.9l8.3-4.7l4.2-2.4l-5.7-3.2l-6.5,3.7l-6,3.4L1155.2,268.9z"/>
	</g>
	
		<use xlink:href="#SVGID_00000122680870212007549560000017140182994942205617_"  style="overflow:visible;fill:none;stroke:#EBF6EA;stroke-miterlimit:10;"/>
</g>
<path class="st26" d="M290,739h183c3.3,0,6,2.7,6,6v93c0,3.3-2.7,6-6,6H290c-3.3,0-6-2.7-6-6v-93C284,741.7,286.7,739,290,739z"/>
<path class="st26" d="M181,444h118c3.3,0,6,2.7,6,6v94c0,3.3-2.7,6-6,6H181c-3.3,0-6-2.7-6-6v-94C175,446.7,177.7,444,181,444z"/>
<path class="st26" d="M306,622h118c3.3,0,6,2.7,6,6v94c0,3.3-2.7,6-6,6H306c-3.3,0-6-2.7-6-6v-94C300,624.7,302.7,622,306,622z"/>
<path class="st26" d="M265,727H82c-3.3,0-6-2.7-6-6v-93c0-3.3,2.7-6,6-6h183c3.3,0,6,2.7,6,6v93C271,724.3,268.3,727,265,727z"/>
<path class="st26" d="M357,501V383c0-3.3,2.7-6,6-6h93c3.3,0,6,2.7,6,6v118c0,3.3-2.7,6-6,6h-93C359.7,507,357,504.3,357,501z"/>
<path class="st26" d="M159,489v118c0,3.3-2.7,6-6,6H60c-3.3,0-6-2.7-6-6V489c0-3.3,2.7-6,6-6h93C156.3,483,159,485.7,159,489z"/>
<path class="st0" d="M1647.4,390.6v58.9c0,4.4-3.5,7.9-7.9,7.9h-58.9c-4.4,0-7.9-3.5-7.9-7.9v-58.9c0-4.4,3.5-7.9,7.9-7.9h58.9
	C1643.8,382.6,1647.4,386.2,1647.4,390.6z"/>
<path class="st1" d="M1302.4,236h30.6c4.7,0,8.4,3.8,8.4,8.4V275c0,4.7-3.8,8.4-8.4,8.4h-30.6c-4.7,0-8.4-3.8-8.4-8.4v-30.6
	C1294,239.8,1297.8,236,1302.4,236z"/>
<path class="st27" d="M1335.3,258.1l-16-16c-0.2-0.2-0.5-0.4-0.8-0.5c-0.3-0.1-0.6-0.2-0.9-0.2c-0.3,0-0.6,0.1-0.9,0.2
	c-0.3,0.1-0.5,0.3-0.8,0.5l-3.3,3.3l4.2,4.2c0.5-0.2,1-0.2,1.5-0.1c0.5,0.1,1,0.4,1.3,0.8c0.4,0.4,0.6,0.8,0.7,1.3
	c0.1,0.5,0.1,1-0.1,1.5l4.1,4c0.6-0.2,1.3-0.2,1.9,0c0.6,0.2,1.1,0.6,1.4,1.2c0.3,0.5,0.5,1.2,0.4,1.8c-0.1,0.6-0.4,1.2-0.9,1.7
	c-0.5,0.4-1.1,0.7-1.7,0.8c-0.6,0-1.3-0.1-1.8-0.5c-0.5-0.4-0.9-0.9-1.1-1.5c-0.2-0.6-0.1-1.3,0.1-1.9l-3.8-3.8v9.9
	c0.6,0.3,1,0.8,1.3,1.3c0.3,0.6,0.3,1.2,0.2,1.9c-0.2,0.6-0.5,1.2-1,1.5s-1.1,0.6-1.8,0.6c-0.6,0-1.2-0.3-1.7-0.7
	c-0.5-0.4-0.8-1-0.9-1.6c-0.1-0.6,0-1.3,0.3-1.8c0.3-0.6,0.8-1,1.4-1.2v-10c-0.3-0.1-0.7-0.3-0.9-0.6c-0.3-0.3-0.5-0.6-0.6-0.9
	c-0.1-0.3-0.2-0.7-0.2-1.1c0-0.4,0.1-0.7,0.2-1.1l-4.1-4.1l-10.9,10.9c-0.2,0.2-0.4,0.5-0.5,0.8c-0.1,0.3-0.2,0.6-0.2,0.9
	c0,0.3,0.1,0.6,0.2,0.9s0.3,0.5,0.5,0.8l16,16c0.2,0.2,0.5,0.4,0.8,0.5c0.3,0.1,0.6,0.2,0.9,0.2c0.3,0,0.6-0.1,0.9-0.2
	c0.3-0.1,0.5-0.3,0.8-0.5l15.9-15.9c0.2-0.2,0.4-0.5,0.5-0.8c0.1-0.3,0.2-0.6,0.2-0.9c0-0.3-0.1-0.6-0.2-0.9
	C1335.7,258.6,1335.5,258.3,1335.3,258.1"/>
<path class="st1" d="M1312.7,245.4l4.2,4.2c0.5-0.2,1-0.2,1.5-0.1c0.5,0.1,1,0.4,1.3,0.8c0.4,0.4,0.6,0.8,0.7,1.4
	c0.1,0.5,0.1,1-0.1,1.5l4.1,4c0.6-0.2,1.3-0.2,1.9,0c0.6,0.2,1.1,0.6,1.4,1.2c0.3,0.5,0.5,1.2,0.4,1.8c-0.1,0.6-0.4,1.2-0.9,1.7
	c-0.5,0.4-1.1,0.7-1.7,0.8c-0.6,0-1.3-0.1-1.8-0.5c-0.5-0.4-0.9-0.9-1.1-1.5c-0.2-0.6-0.1-1.3,0.1-1.9l-3.8-3.8v9.9
	c0.6,0.3,1,0.8,1.3,1.3c0.3,0.6,0.3,1.2,0.2,1.9c-0.2,0.6-0.5,1.2-1,1.5c-0.5,0.4-1.1,0.6-1.8,0.6c-0.6,0-1.2-0.3-1.7-0.7
	c-0.5-0.4-0.8-1-0.9-1.6c-0.1-0.6,0-1.3,0.3-1.8c0.3-0.6,0.8-1,1.4-1.2v-10c-0.3-0.1-0.7-0.3-0.9-0.6c-0.3-0.3-0.5-0.6-0.6-0.9
	c-0.1-0.3-0.2-0.7-0.2-1.1c0-0.4,0.1-0.7,0.2-1.1l-4.1-4.1"/>
<path class="st0" d="M1121.6,62.6h58.9c4.4,0,7.9,3.5,7.9,7.9v58.9c0,4.4-3.5,7.9-7.9,7.9h-58.9c-4.4,0-7.9-3.5-7.9-7.9V70.6
	C1113.6,66.2,1117.2,62.6,1121.6,62.6z"/>
<path class="st0" d="M1246.6,90.4V31.6c0-4.4,3.5-7.9,7.9-7.9h58.9c4.4,0,7.9,3.5,7.9,7.9v58.9c0,4.4-3.5,7.9-7.9,7.9h-58.9
	C1250.2,98.4,1246.6,94.8,1246.6,90.4z"/>
<path class="st0" d="M1539.6,90.4V31.6c0-4.4,3.5-7.9,7.9-7.9h58.9c4.4,0,7.9,3.5,7.9,7.9v58.9c0,4.4-3.5,7.9-7.9,7.9h-58.9
	C1543.2,98.4,1539.6,94.8,1539.6,90.4z"/>
<path class="st0" d="M2.6,326.4v-58.9c0-4.4,3.5-7.9,7.9-7.9h58.9c4.4,0,7.9,3.5,7.9,7.9v58.9c0,4.4-3.5,7.9-7.9,7.9H10.6
	C6.2,334.4,2.6,330.8,2.6,326.4z"/>
</svg>
