<?xml version="1.0" encoding="utf-8"?>
<!-- Generator: Adobe Illustrator 26.5.0, SVG Export Plug-In . SVG Version: 6.00 Build 0)  -->
<svg version="1.1" id="Layer_1" xmlns="http://www.w3.org/2000/svg" xmlns:xlink="http://www.w3.org/1999/xlink" x="0px" y="0px"
	 viewBox="0 0 32.8 31.8" style="enable-background:new 0 0 32.8 31.8;" xml:space="preserve">
<style type="text/css">
	.st0{fill:none;stroke:#FFFFFF;stroke-width:0.75;stroke-miterlimit:10;}
	.st1{fill:#FFFFFF;}
</style>
<path class="st0" d="M9.8,6.7H23c0.4,0,0.7-0.3,0.7-0.7S23.4,5.4,23,5.4H9.8C9.4,5.4,9.1,5.6,9.1,6S9.4,6.7,9.8,6.7z"/>
<path class="st0" d="M4.4,10.5h24c0.4,0,0.7-0.3,0.7-0.7c0-0.4-0.3-0.7-0.7-0.7h-24C4,9.2,3.7,9.4,3.7,9.8C3.7,10.2,4,10.5,4.4,10.5
	z"/>
<path class="st0" d="M4.4,14.3h24c0.4,0,0.7-0.3,0.7-0.7S28.7,13,28.4,13h-24c-0.4,0-0.7,0.3-0.7,0.7C3.7,14,4,14.3,4.4,14.3z"/>
<path class="st0" d="M31.7,0.4H1C0.7,0.4,0.4,0.7,0.4,1v21.4c0,0.4,0.3,0.7,0.7,0.7h9.8c0,0,0,0,0,0.1L8,27.1
	c-0.1,0.2-0.2,0.5,0,0.7C8,28,8.3,28.2,8.5,28.2l3-0.1l0.7,2.9c0,0.3,0.3,0.5,0.5,0.5c0.2,0,0.5,0,0.7-0.3l3-4l3,4
	c0.2,0.2,0.4,0.3,0.7,0.3c0.3,0,0.5-0.2,0.5-0.5l0.7-2.9l3,0.1c0.3,0,0.5-0.1,0.6-0.4c0.1-0.2,0.1-0.5,0-0.7l-2.9-3.9c0,0,0,0,0-0.1
	h9.8c0.4,0,0.7-0.3,0.7-0.7V1C32.4,0.7,32.1,0.4,31.7,0.4L31.7,0.4z M16.4,25.7c-2.5,0-4.5-2-4.5-4.5s2-4.5,4.5-4.5s4.5,2,4.5,4.5
	S18.9,25.7,16.4,25.7z M13.2,29.2l-0.5-2.1c-0.1-0.3-0.4-0.5-0.7-0.5l-2.1,0.1l1.7-2.2c0.8,1.2,2,2,3.4,2.4
	C15,26.9,13.2,29.2,13.2,29.2z M22.9,26.7l-2.1-0.1c-0.3,0-0.6,0.2-0.7,0.5l-0.5,2.1l-1.8-2.4c1.4-0.3,2.6-1.2,3.4-2.4L22.9,26.7
	L22.9,26.7z M31,21.8h-8.9c0-0.2,0-0.4,0-0.6c0-3.2-2.6-5.8-5.8-5.8s-5.8,2.6-5.8,5.8c0,0.2,0,0.4,0,0.6H1.7V1.7H31V21.8L31,21.8z"
	/>
<path class="st0" d="M16.4,18.4c-1.5,0-2.8,1.2-2.8,2.8c0,1.5,1.2,2.8,2.8,2.8c1.5,0,2.8-1.2,2.8-2.8C19.1,19.7,17.9,18.4,16.4,18.4
	z M16.4,22.6c-0.8,0-1.4-0.6-1.4-1.5c0-0.8,0.6-1.5,1.4-1.5c0.8,0,1.5,0.6,1.5,1.5C17.8,22,17.2,22.6,16.4,22.6z"/>
<g>
	<path class="st1" d="M9.8,6.6H23c0.4,0,0.7-0.3,0.7-0.7c0-0.4-0.3-0.7-0.7-0.7H9.8C9.4,5.3,9.1,5.6,9.1,6C9.1,6.3,9.4,6.6,9.8,6.6z
		"/>
	<path class="st1" d="M4.4,10.4h24c0.4,0,0.7-0.3,0.7-0.7c0-0.4-0.3-0.7-0.7-0.7h-24C4,9.1,3.7,9.4,3.7,9.8
		C3.7,10.1,4,10.4,4.4,10.4z"/>
	<path class="st1" d="M4.4,14.3h24c0.4,0,0.7-0.3,0.7-0.7c0-0.4-0.3-0.7-0.7-0.7h-24c-0.4,0-0.7,0.3-0.7,0.7C3.7,14,4,14.3,4.4,14.3
		z"/>
	<path class="st1" d="M31.7,0.3H1C0.7,0.3,0.4,0.6,0.4,1v21.4c0,0.4,0.3,0.7,0.7,0.7h9.8c0,0,0,0,0,0.1L8,27
		c-0.2,0.2-0.2,0.5-0.1,0.7C8,28,8.3,28.1,8.5,28.1l3-0.2l0.7,2.9c0.1,0.3,0.3,0.4,0.5,0.5c0.3,0.1,0.5,0,0.7-0.2l3-3.9l3,3.9
		c0.2,0.2,0.4,0.3,0.7,0.2c0.3-0.1,0.5-0.2,0.5-0.5l0.7-2.9l3,0.2c0.3,0,0.5-0.1,0.6-0.4c0.1-0.2,0.1-0.5-0.1-0.7l-2.9-3.9
		c0,0,0,0,0-0.1h9.8c0.4,0,0.7-0.3,0.7-0.7V1C32.4,0.6,32.1,0.3,31.7,0.3z M16.4,25.6c-2.5,0-4.5-2-4.5-4.5s2-4.5,4.5-4.5
		s4.5,2,4.5,4.5S18.9,25.6,16.4,25.6z M13.2,29.2l-0.5-2.1c-0.1-0.3-0.4-0.5-0.7-0.5l-2.1,0.1l1.7-2.2c0.8,1.2,2,2,3.4,2.4
		L13.2,29.2z M22.9,26.7l-2.1-0.1c-0.3,0-0.6,0.2-0.7,0.5l-0.5,2.1l-1.8-2.4c1.4-0.3,2.6-1.2,3.4-2.4L22.9,26.7z M31,21.7h-8.9
		c0-0.2,0-0.4,0-0.6c0-3.2-2.6-5.8-5.8-5.8c-3.2,0-5.8,2.6-5.8,5.8c0,0.2,0,0.4,0,0.6H1.7V1.7H31V21.7z"/>
	<path class="st1" d="M16.4,18.4c-1.5,0-2.8,1.2-2.8,2.8s1.2,2.8,2.8,2.8c1.5,0,2.8-1.2,2.8-2.8S17.9,18.4,16.4,18.4z M16.4,22.6
		c-0.8,0-1.4-0.6-1.4-1.4c0-0.8,0.6-1.4,1.4-1.4c0.8,0,1.4,0.6,1.4,1.4C17.8,21.9,17.2,22.6,16.4,22.6z"/>
</g>
</svg>
